<svg width="152" height="13" viewBox="0 0 152 13" style="display: block;" fill="none" xmlns="http://www.w3.org/2000/svg">
<g id="Group">
<path id="Vector" d="M0 0.351217H7.34623V1.56428H2.33155V5.63939H6.41572V6.78023H2.33155V12.6488H0V0.351217Z" fill="var(--fill-0, white)"/>
<path id="Vector_2" d="M18.848 12.6488H16.3314L14.8035 9.31098H9.82581L8.24236 12.6488H6.84396L12.9213 0L18.8506 12.6488H18.848ZM10.3466 8.23989H14.2986L12.3609 4.04024L10.3466 8.23989Z" fill="var(--fill-0, white)"/>
<path id="Vector_3" d="M20.7513 12.6488V0.351217H24.3306C27.2569 0.351217 28.7293 1.30025 28.7293 3.10864C28.7293 4.74267 27.2569 5.86607 25.2981 6.00805C28.0394 6.02548 29.4193 7.09657 29.4193 8.9772C29.4193 11.3834 27.0322 12.6488 24.2751 12.6488H20.7513ZM23.0802 1.47461V5.55221H23.9763C25.4858 5.55221 26.2894 4.69036 26.2894 3.44491C26.2894 2.07492 25.3192 1.4771 24.053 1.4771H23.0829L23.0802 1.47461ZM23.0802 6.62081V11.5229H24.1799C25.914 11.5229 26.9397 10.5913 26.9397 9.04694C26.9397 7.36061 25.6708 6.6233 24.2354 6.6233H23.0802V6.62081Z" fill="var(--fill-0, white)"/>
<path id="Vector_4" d="M32.1421 0.351217H34.4736V12.6488H32.1421V0.351217Z" fill="var(--fill-0, white)"/>
<path id="Vector_5" d="M48.3809 12.6488H45.8643L44.3364 9.31098H39.3587L37.7753 12.6488H36.3769L42.4516 0L48.3809 12.6488ZM39.8795 8.23989H43.8315L41.8938 4.04024L39.8795 8.23989Z" fill="var(--fill-0, white)"/>
<path id="Vector_6" d="M50.2816 0L59.6765 8.66085V0.351217H61.0379V13L51.6615 4.35658V12.6488H50.2816V0Z" fill="var(--fill-0, white)"/>
<path id="Vector_7" d="M66.3328 0.351217H68.9419L72.6904 8.7306L76.5868 0.351217H78.0408L72.1114 13L66.3328 0.351217Z" fill="var(--fill-0, white)"/>
<path id="Vector_8" d="M88.7072 12.6488H86.1906L84.6627 9.31098H79.685L78.1016 12.6488H76.7032L82.7779 0L88.7072 12.6488ZM80.2058 8.23989H84.1578L82.2201 4.04024L80.2058 8.23989Z" fill="var(--fill-0, white)"/>
<path id="Vector_9" d="M90.6079 0L100.003 8.66085V0.351217H101.364V13L91.9878 4.35658V12.6488H90.6079V0Z" fill="var(--fill-0, white)"/>
<path id="Vector_10" d="M110.371 12.8779C106.847 12.8779 104.031 10.4543 104.031 6.65817C104.031 2.51332 107.108 0.122054 110.371 0.122054C112.758 0.122054 114.994 1.30025 115.123 3.5296L112.533 3.82851C112.459 2.19448 111.47 1.28032 109.961 1.28032C107.965 1.28032 106.344 3.03641 106.344 5.6369C106.344 8.78042 108.414 10.96 111.304 10.96C112.927 10.96 114.399 10.275 115.274 9.1142C115.049 11.5727 112.758 12.873 110.371 12.873V12.8779Z" fill="var(--fill-0, white)"/>
<path id="Vector_11" d="M129.964 6.46388C129.964 10.4867 126.813 12.8755 123.44 12.8755C120.067 12.8755 117.008 10.5913 117.008 6.53363C117.008 2.47595 120.157 0.122054 123.532 0.122054C126.908 0.122054 129.964 2.40621 129.964 6.46388ZM119.599 6.09523C119.599 9.45047 121.352 11.7346 123.683 11.7346C125.845 11.7346 127.373 9.90879 127.373 6.90477C127.373 3.53209 125.621 1.26538 123.252 1.26538C121.108 1.26538 119.599 3.11113 119.599 6.09523Z" fill="var(--fill-0, white)"/>
<path id="Vector_12" d="M130.876 0.351217H140.905V1.61659H137.064V12.6488H134.733V1.61659H130.873V0.351217H130.876Z" fill="var(--fill-0, white)"/>
<path id="Vector_13" d="M141.971 0.351217H152V1.61659H148.159V12.6488H145.827V1.61659H141.968V0.351217H141.971Z" fill="var(--fill-0, white)"/>
</g>
</svg>
