<svg width="162" height="15" viewBox="0 0 162 15" style="display: block;" fill="none" xmlns="http://www.w3.org/2000/svg">
<g id="holland__hart_llp_logo.svg" clip-path="url(#clip0_0_4)">
<g id="Group 2">
<path id="Path 1" d="M-9.46045e-07 14.904V9.91147L10.042 0.0926686V5.05213L-9.46045e-07 14.904Z" fill="var(--fill-0, white)"/>
<path id="Path 2" d="M10.042 9.84444V14.904L15.3004 9.76253V4.91892L10.042 9.84444Z" fill="var(--fill-0, white)"/>
</g>
<path id="Path 3" d="M43.2728 4.39186C42.5617 4.36522 41.8526 4.48185 41.1896 4.73451C40.5265 4.98717 39.9237 5.37047 39.4185 5.86057C38.9134 6.35068 38.5168 6.93714 38.2532 7.58348C37.9897 8.22983 37.8649 8.92225 37.8867 9.61774C37.8867 11.0171 38.4552 12.3592 39.4672 13.3487C40.4792 14.3382 41.8518 14.8941 43.283 14.8941C44.7142 14.8941 46.0868 14.3382 47.0988 13.3487C48.1108 12.3592 48.6793 11.0171 48.6793 9.61774C48.6999 8.92087 48.5736 8.22731 48.3083 7.58019C48.0431 6.93306 47.6446 6.34621 47.1375 5.85608C46.6304 5.36595 46.0257 4.98304 45.3608 4.73115C44.696 4.47926 43.9852 4.36377 43.2728 4.39186ZM43.2728 12.9009C42.6147 12.9069 41.9696 12.722 41.419 12.3695C40.8685 12.017 40.4371 11.5128 40.1796 10.9206C39.9221 10.3285 39.85 9.67494 39.9724 9.04269C40.0948 8.41044 40.4062 7.82786 40.8672 7.36865C41.3282 6.90944 41.9181 6.59422 42.5623 6.46285C43.2066 6.33147 43.8762 6.38984 44.4865 6.63058C45.0968 6.87133 45.6204 7.28363 45.991 7.81534C46.3617 8.34705 46.5628 8.97429 46.5688 9.61774C46.5895 10.0491 46.5189 10.48 46.3614 10.8835C46.2039 11.287 45.9629 11.6543 45.6535 11.9625C45.3441 12.2707 44.973 12.5131 44.5633 12.6746C44.1537 12.836 43.7143 12.9131 43.2728 12.9009Z" fill="var(--fill-0, white)"/>
<path id="Rectangle 1" d="M52.5803 0.0926692H50.4699V14.7046H52.5803V0.0926692Z" fill="var(--fill-0, white)"/>
<path id="Rectangle 2" d="M57.1558 0.0926692H55.0454V14.7046H57.1558V0.0926692Z" fill="var(--fill-0, white)"/>
<path id="Path 4" d="M67.6091 5.64703C66.6811 4.82072 65.4656 4.37179 64.2107 4.39186C63.5094 4.38386 62.8136 4.51496 62.1656 4.77723C61.5175 5.03951 60.9307 5.42752 60.4403 5.91782C59.9499 6.40812 59.5662 6.99054 59.3125 7.62988C59.0588 8.26922 58.9404 8.95222 58.9642 9.6376C58.9473 10.3222 59.0704 11.0033 59.3264 11.6407C59.5823 12.2782 59.9659 12.8593 60.4546 13.3498C60.9433 13.8404 61.5272 14.2306 62.1722 14.4974C62.8172 14.7643 63.5103 14.9026 64.2107 14.904C65.4674 14.9244 66.684 14.4718 67.6091 13.6398V14.7046H69.7195V4.59127H67.6091V5.64703ZM64.3089 12.9009C63.6486 12.9061 63.0015 12.7191 62.4502 12.3636C61.8989 12.0082 61.4683 11.5004 61.2131 10.9048C60.9579 10.3093 60.8897 9.65295 61.0172 9.01941C61.1448 8.38586 61.4622 7.80374 61.9291 7.34717C62.3961 6.89059 62.9914 6.5802 63.6393 6.45551C64.2873 6.33083 64.9586 6.39748 65.5677 6.647C66.1768 6.89651 66.6961 7.31759 67.0596 7.85664C67.4232 8.39569 67.6144 9.02833 67.6091 9.67401C67.6195 10.1002 67.5414 10.524 67.3795 10.9199C67.2176 11.3157 66.9753 11.6753 66.6672 11.9769C66.3591 12.2786 65.9916 12.516 65.587 12.6748C65.1824 12.8336 64.7489 12.9105 64.313 12.9009H64.3089Z" fill="var(--fill-0, white)"/>
<path id="Path 5" d="M76.8007 4.39186C75.7333 4.3844 74.6996 4.75735 73.8931 5.441V4.59126H71.7826V14.7046H73.8931V9.14612C73.8683 8.78276 73.9235 8.41842 74.0549 8.07768C74.1863 7.73693 74.3909 7.4277 74.6549 7.17082C74.9189 6.91395 75.2362 6.7154 75.5853 6.58856C75.9344 6.46173 76.3073 6.40955 76.6788 6.43555C77.0032 6.43551 77.3241 6.50234 77.6203 6.63169C77.9166 6.76104 78.1816 6.95 78.3982 7.18624C78.6147 7.42248 78.7779 7.7007 78.8771 8.00276C78.9762 8.30482 79.0092 8.62393 78.9737 8.93927V14.7054H81.0808V8.87969C81.0808 6.1534 79.4028 4.39186 76.8007 4.39186Z" fill="var(--fill-0, white)"/>
<path id="Path 6" d="M91.3927 5.64703C90.4647 4.82079 89.2493 4.37187 87.9943 4.39186C87.293 4.38386 86.5974 4.51495 85.9494 4.77723C85.3013 5.03951 84.7144 5.42752 84.224 5.91782C83.7336 6.40813 83.35 6.99054 83.0963 7.62988C82.8426 8.26922 82.724 8.95222 82.7479 9.6376C82.731 10.3222 82.8541 11.0033 83.11 11.6407C83.3659 12.2782 83.7495 12.8593 84.2382 13.3498C84.7269 13.8404 85.311 14.2306 85.956 14.4975C86.601 14.7643 87.294 14.9026 87.9943 14.904C89.251 14.9243 90.4677 14.4717 91.3927 13.6397V14.7046H93.5032V0.0926687H91.3927V5.64703ZM88.0926 12.9009C87.4322 12.9061 86.7851 12.7191 86.2338 12.3636C85.6825 12.0082 85.2519 11.5003 84.9968 10.9048C84.7416 10.3093 84.6734 9.65295 84.8009 9.0194C84.9284 8.38586 85.2459 7.80374 85.7128 7.34716C86.1798 6.89059 86.7752 6.5802 87.4231 6.45551C88.0711 6.33083 88.7423 6.39748 89.3514 6.647C89.9604 6.89651 90.4798 7.3176 90.8433 7.85665C91.2068 8.3957 91.3981 9.02833 91.3927 9.674C91.4031 10.1003 91.3251 10.5242 91.1631 10.92C91.0012 11.3159 90.7588 11.6756 90.4506 11.9772C90.1424 12.2789 89.7748 12.5163 89.3701 12.675C88.9653 12.8338 88.5319 12.9106 88.0959 12.9009H88.0926Z" fill="var(--fill-0, white)"/>
<path id="Path 7" d="M33.7749 6.32136H24.5512V0.0934961H22.4433V14.7054H24.5512V8.3816H33.7749V14.7046H35.8828V0.0934961H33.7749V6.32136Z" fill="var(--fill-0, white)"/>
<path id="Path 8" d="M142.77 5.74218C141.842 4.91602 140.626 4.46711 139.371 4.48701C138.67 4.47901 137.975 4.61011 137.327 4.87239C136.678 5.13466 136.091 5.52268 135.601 6.01298C135.111 6.50328 134.727 7.08569 134.473 7.72503C134.22 8.36437 134.101 9.04737 134.125 9.73275C134.108 10.4174 134.231 11.0984 134.487 11.7359C134.743 12.3734 135.127 12.9544 135.615 13.445C136.104 13.9355 136.688 14.3257 137.333 14.5926C137.978 14.8595 138.671 14.9977 139.371 14.9992C140.628 15.0194 141.845 14.5668 142.77 13.7349V14.7989H144.88V4.68642H142.77V5.74218ZM139.47 12.996C138.81 13.0011 138.163 12.814 137.612 12.4586C137.061 12.1031 136.63 11.5954 136.375 11.0001C136.12 10.4047 136.052 9.74865 136.18 9.11534C136.307 8.48203 136.625 7.90014 137.091 7.44373C137.558 6.98732 138.153 6.67702 138.801 6.55234C139.449 6.42766 140.12 6.49423 140.729 6.74358C141.337 6.99292 141.857 7.41377 142.22 7.95256C142.584 8.49135 142.775 9.12372 142.77 9.76916C142.78 10.1954 142.702 10.6193 142.54 11.0152C142.378 11.4111 142.136 11.7707 141.828 12.0724C141.519 12.374 141.152 12.6114 140.747 12.7702C140.342 12.9289 139.909 13.0058 139.473 12.996H139.47Z" fill="var(--fill-0, white)"/>
<path id="Path 9" d="M130.195 6.41651H120.971V0.0934961H118.864V14.7998H120.971V8.47675H130.195V14.7998H132.303V0.0934961H130.195V6.41651Z" fill="var(--fill-0, white)"/>
<path id="Path 10" d="M162 6.1898V4.30581H159.053V0.971371H156.962V4.30581H155.225V6.1898H156.979V11.5903C156.93 12.0434 156.981 12.5014 157.129 12.9335C157.277 13.3655 157.518 13.7615 157.836 14.0948C158.484 14.5937 159.297 14.8443 160.121 14.7998H162V12.8967H160.611C160.174 12.9417 159.734 12.8423 159.362 12.6146C159.242 12.4734 159.153 12.3102 159.1 12.1346C159.047 11.959 159.03 11.7747 159.052 11.5927V6.1898H162Z" fill="var(--fill-0, white)"/>
<path id="Path 11" d="M149.458 5.49313V4.48288H147.327V14.7998H149.458V10.6884C149.458 9.6707 149.628 6.33708 151.828 6.1898H153.7V4.30581H151.802C151.347 4.32616 150.902 4.44285 150.497 4.64784C150.092 4.85283 149.738 5.14122 149.458 5.49313Z" fill="var(--fill-0, white)"/>
<path id="Path 12" d="M113.798 7.97617V6.47443H109.661L109.468 7.76187C109.344 8.49639 109.137 9.21497 108.848 9.90402L105.936 6.88813C107.967 6.0508 108.992 4.7915 108.992 3.14413C108.992 0.827405 106.989 1.46452e-06 105.115 1.46452e-06C102.69 1.46452e-06 101.061 1.24607 101.061 3.10194C101.061 4.10061 101.555 5.10094 102.662 6.33791C100.215 7.16532 98.9224 8.69436 98.9224 10.7538C98.9224 13.2525 100.98 14.9975 103.924 14.9975C104.877 15.0124 105.823 14.8318 106.7 14.4674C107.577 14.103 108.366 13.5629 109.017 12.8818L110.794 14.7261L110.807 14.7385H113.545L110.215 11.3081C110.824 10.2791 111.236 9.14991 111.43 7.97617H113.798ZM103.128 3.05808C103.128 2.42016 103.66 1.67549 105.159 1.67549C105.743 1.67549 107.105 1.82939 107.105 3.24756C107.105 4.27602 106.272 5.15059 104.756 5.69999C104.719 5.65944 104.666 5.60566 104.601 5.5403C104.158 5.09929 103.128 4.05511 103.128 3.05808ZM107.77 11.6167C107.293 12.1556 106.702 12.5869 106.038 12.8812C105.375 13.1754 104.653 13.3255 103.924 13.3212C103.552 13.3417 103.179 13.2887 102.828 13.1653C102.477 13.0419 102.155 12.8507 101.881 12.603C101.607 12.3553 101.387 12.0562 101.234 11.7236C101.081 11.3909 100.998 11.0316 100.99 10.6669C100.99 9.22555 101.921 8.20453 103.824 7.54509L107.77 11.6167Z" fill="var(--fill-0, white)"/>
</g>
<defs>
<clipPath id="clip0_0_4">
<rect width="162" height="15" fill="white"/>
</clipPath>
</defs>
</svg>
