<svg width="134.106" height="22.6642" viewBox="0 0 134.106 22.6642" style="display: block;" fill="none" xmlns="http://www.w3.org/2000/svg">
<g id="Group">
<path id="Vector" d="M27.1693 2.73547H33.7882C36.7733 2.73547 38.6307 4.56627 38.6307 7.30327C38.6307 9.87467 36.7733 11.8711 33.7882 11.8711H29.9662V17.5705H27.1693V2.73547ZM35.7933 7.30327C35.7933 6.02753 34.8958 5.16273 33.3729 5.16273H29.9678V9.44227H33.3729C34.8958 9.44227 35.7933 8.55753 35.7933 7.30327Z" fill="var(--fill-0, white)"/>
<path id="Vector_2" d="M45.3662 9.13407C43.8433 9.13407 42.4231 10.4297 42.4231 13.6405V17.5705H39.7927V6.89233H42.4231V9.154C42.9038 7.9396 44.3644 6.72673 45.6789 6.72673C46.0553 6.72673 46.284 6.76813 46.41 6.78807V9.25673C46.1813 9.21687 45.8049 9.13407 45.3662 9.13407Z" fill="var(--fill-0, white)"/>
<path id="Vector_3" d="M46.886 12.2207C46.886 9.0528 49.1478 6.72673 52.2869 6.72673C55.4058 6.72673 57.6878 9.05127 57.6878 12.2207C57.6878 15.41 55.4058 17.7345 52.2869 17.7345C49.1493 17.7345 46.886 15.41 46.886 12.2207ZM55.0807 12.2207C55.0807 10.2871 53.9187 8.97 52.2884 8.97C50.596 8.97 49.5164 10.3071 49.5164 12.2207C49.5164 14.1542 50.596 15.4928 52.2884 15.4928C53.9389 15.4913 55.0807 14.1542 55.0807 12.2207Z" fill="var(--fill-0, white)"/>
<path id="Vector_4" d="M89.1551 12.2207C89.1551 9.0528 91.4169 6.72673 94.556 6.72673C97.6749 6.72673 99.9569 9.05127 99.9569 12.2207C99.9569 15.41 97.6749 17.7345 94.556 17.7345C91.4169 17.7345 89.1551 15.41 89.1551 12.2207ZM97.3482 12.2207C97.3482 10.2871 96.1862 8.97 94.556 8.97C92.8636 8.97 91.784 10.3071 91.784 12.2207C91.784 14.1542 92.8636 15.4928 94.556 15.4928C96.2064 15.4913 97.3482 14.1542 97.3482 12.2207Z" fill="var(--fill-0, white)"/>
<path id="Vector_5" d="M64.7547 9.05127H62.2284V13.9273C62.2284 14.9362 62.8553 15.4913 63.7311 15.4913C64.1278 15.4913 64.5447 15.4085 64.7547 15.3471V17.5904C64.5042 17.6517 64.0033 17.7345 63.4184 17.7345C61.1847 17.7345 59.598 16.583 59.598 14.1956V9.05127H57.7609V6.89233H59.598V3.7444H62.2284V6.89233H64.7547V9.05127Z" fill="var(--fill-0, white)"/>
<path id="Vector_6" d="M77.3951 17.7759H80.0458C80.192 18.8462 81.1518 19.504 82.6544 19.504C84.2831 19.504 85.2849 18.6193 85.2849 17.1381V15.801C84.7638 16.5217 83.6142 17.0353 82.2578 17.0353C79.1264 17.0353 77.1851 14.9577 77.1851 11.891C77.1851 8.8044 79.1264 6.72673 82.1956 6.72673C83.51 6.72673 84.658 7.26187 85.2849 8.0638V6.89233H87.9153V16.8713C87.9153 19.7923 85.8698 21.5832 82.656 21.5832C79.7113 21.5817 77.728 20.2645 77.3951 17.7759ZM85.4311 11.891C85.4311 10.143 84.3453 8.97 82.6544 8.97C80.9636 8.97 79.8576 10.1215 79.8576 11.891C79.8576 13.6605 80.9636 14.8135 82.6544 14.8135C84.3453 14.8135 85.4311 13.6605 85.4311 11.891Z" fill="var(--fill-0, white)"/>
<path id="Vector_7" d="M101.346 6.98893H103.976V8.8458C104.686 7.7556 105.918 6.82333 107.441 6.82333C109.779 6.82333 111.365 8.34593 111.365 10.6705V17.5689H108.757V11.2685C108.757 10.0127 107.943 9.12793 106.669 9.12793C104.958 9.12793 103.976 10.5677 103.976 12.9751V17.5689H101.346V6.98893Z" fill="var(--fill-0, white)"/>
<path id="Vector_8" d="M115.94 2.78453V5.50007H113.218V2.78453H115.94ZM113.268 6.89233H115.898V17.5705H113.268V6.89233Z" fill="var(--fill-0, white)"/>
<path id="Vector_9" d="M134.104 9.05127H131.578V13.9273C131.578 14.9362 132.205 15.4913 133.081 15.4913C133.478 15.4913 133.894 15.4085 134.104 15.3471V17.5904C133.854 17.6517 133.353 17.7345 132.768 17.7345C130.534 17.7345 128.949 16.583 128.949 14.1956V9.05127H127.112V6.89233H128.949V3.7444H131.58V6.89233H134.106V9.05127H134.104Z" fill="var(--fill-0, white)"/>
<path id="Vector_10" d="M11.0538 0H0V22.6642H1.35644L5.46933 17.6625H11.0538C15.9942 17.6625 20.0138 13.7003 20.0138 8.83047C20.0138 3.96213 15.9942 0 11.0538 0ZM11.0538 16.0494H6.79778L8.74378 13.6835H11.0553C13.7698 13.6835 15.9771 11.5077 15.9771 8.832C15.9771 6.15633 13.7682 3.98053 11.0538 3.98053H4.23111V16.606L1.638 19.7585V1.6146H11.0538C15.0904 1.6146 18.3758 4.85147 18.3758 8.832C18.3758 12.811 15.0904 16.0494 11.0538 16.0494ZM5.86911 14.6142V5.59513H11.0538C12.8644 5.59513 14.3376 7.0472 14.3376 8.832C14.3376 10.6168 12.8644 12.0689 11.0538 12.0689H7.96289L5.86911 14.6142Z" fill="var(--fill-0, white)"/>
<path id="Vector_11" d="M76.0636 15.4913C75.6249 15.4913 75.3947 15.2229 75.3947 14.6265V10.8621C75.3947 8.3306 73.5793 6.72673 70.7187 6.72673C68.1629 6.72673 66.4596 8.004 66.0613 10.0602L68.5269 10.4512H68.5487C68.6327 9.361 69.5302 8.74307 70.7202 8.74307C71.9942 8.74307 72.7658 9.40087 72.7658 10.1829C72.7658 10.6567 72.4733 10.9449 71.8884 11.0262L69.7169 11.3145C67.3167 11.6227 65.9384 12.7757 65.9384 14.6479C65.9384 16.4373 67.5251 17.7345 69.7169 17.7345C71.3238 17.7345 72.6398 16.8452 73.1189 15.8991C73.2449 16.9081 73.682 17.6671 75.1644 17.6931C75.7898 17.7039 76.4167 17.5705 76.4167 17.5705V15.4514C76.4182 15.4499 76.2082 15.4913 76.0636 15.4913ZM72.828 12.9613C72.828 14.5667 71.8464 15.7596 70.1556 15.7596C69.7169 15.7596 69.2331 15.6461 68.9096 15.3364C68.4258 14.8733 68.5098 14.1051 68.9671 13.6574C69.2798 13.3523 69.706 13.1897 70.1322 13.0839C70.9287 12.8861 71.75 12.7849 72.5184 12.4905C72.5418 12.4813 72.8264 12.3909 72.8264 12.3633C72.828 12.3648 72.828 12.9613 72.828 12.9613Z" fill="var(--fill-0, white)"/>
<path id="Vector_12" d="M123.272 11.109L121.581 10.7594C120.871 10.6153 120.412 10.3071 120.412 9.79187C120.412 9.17393 121.018 8.8044 121.853 8.8044C122.727 8.8044 123.622 9.2552 123.751 10.1139L126.246 9.71827C125.806 7.84147 124.057 6.72673 121.851 6.72673C119.347 6.72673 117.802 8.12513 117.802 9.79187C117.802 11.891 119.327 12.6929 120.996 13.0425L122.687 13.3921C123.418 13.5363 123.855 13.8659 123.855 14.421C123.855 15.0788 123.124 15.5311 122.082 15.5311C120.794 15.5311 119.94 14.6755 119.871 13.8767L117.342 14.2769C117.64 16.3361 119.457 17.733 122.083 17.733C124.756 17.733 126.529 16.2104 126.529 14.3581C126.527 12.1793 125.109 11.4801 123.272 11.109Z" fill="var(--fill-0, white)"/>
</g>
</svg>
